<mxfile host="app.diagrams.net" modified="2020-11-16T08:05:25.683Z" agent="5.0 (Windows NT 10.0; Win64; x64) AppleWebKit/537.36 (KHTML, like Gecko) Chrome/86.0.4240.183 Safari/537.36" etag="gT4dGC2UiXTrnBHEwbVi" version="13.9.2" type="github">
  <diagram id="EanW1gIYu_CLDVQzPti6" name="Page-1">
    <mxGraphModel dx="211" dy="548" grid="1" gridSize="10" guides="1" tooltips="1" connect="1" arrows="1" fold="1" page="1" pageScale="1" pageWidth="827" pageHeight="1169" math="0" shadow="0">
      <root>
        <mxCell id="0" />
        <mxCell id="1" parent="0" />
        <mxCell id="gKmMaiQlApSWdwAcJFkc-56" value="Party Steps" style="text;html=1;strokeColor=none;fillColor=none;align=center;verticalAlign=middle;whiteSpace=wrap;rounded=0;" parent="1" vertex="1">
          <mxGeometry x="1162" y="50" width="160" height="20" as="geometry" />
        </mxCell>
        <mxCell id="gKmMaiQlApSWdwAcJFkc-57" value="Host" style="text;html=1;strokeColor=none;fillColor=none;align=center;verticalAlign=middle;whiteSpace=wrap;rounded=0;" parent="1" vertex="1">
          <mxGeometry x="921" y="50" width="160" height="20" as="geometry" />
        </mxCell>
        <mxCell id="gKmMaiQlApSWdwAcJFkc-58" value="Players" style="text;html=1;strokeColor=none;fillColor=none;align=center;verticalAlign=middle;whiteSpace=wrap;rounded=0;" parent="1" vertex="1">
          <mxGeometry x="1401" y="50" width="160" height="20" as="geometry" />
        </mxCell>
        <mxCell id="gKmMaiQlApSWdwAcJFkc-59" value="" style="endArrow=none;html=1;" parent="1" edge="1">
          <mxGeometry width="50" height="50" relative="1" as="geometry">
            <mxPoint x="1000" y="1000" as="sourcePoint" />
            <mxPoint x="1000" y="80" as="targetPoint" />
          </mxGeometry>
        </mxCell>
        <mxCell id="gKmMaiQlApSWdwAcJFkc-61" value="" style="endArrow=none;html=1;" parent="1" source="gKmMaiQlApSWdwAcJFkc-68" edge="1">
          <mxGeometry width="50" height="50" relative="1" as="geometry">
            <mxPoint x="1480" y="490" as="sourcePoint" />
            <mxPoint x="1480" y="80" as="targetPoint" />
          </mxGeometry>
        </mxCell>
        <mxCell id="gKmMaiQlApSWdwAcJFkc-63" style="edgeStyle=orthogonalEdgeStyle;rounded=0;orthogonalLoop=1;jettySize=auto;html=1;endArrow=none;endFill=0;" parent="1" source="gKmMaiQlApSWdwAcJFkc-62" edge="1">
          <mxGeometry relative="1" as="geometry">
            <mxPoint x="1240" y="80" as="targetPoint" />
          </mxGeometry>
        </mxCell>
        <mxCell id="gKmMaiQlApSWdwAcJFkc-64" style="edgeStyle=orthogonalEdgeStyle;rounded=0;orthogonalLoop=1;jettySize=auto;html=1;endArrow=none;endFill=0;startArrow=classic;startFill=1;" parent="1" source="gKmMaiQlApSWdwAcJFkc-62" target="gKmMaiQlApSWdwAcJFkc-67" edge="1">
          <mxGeometry relative="1" as="geometry">
            <mxPoint x="1030" y="190" as="targetPoint" />
          </mxGeometry>
        </mxCell>
        <mxCell id="gKmMaiQlApSWdwAcJFkc-79" style="edgeStyle=orthogonalEdgeStyle;rounded=0;orthogonalLoop=1;jettySize=auto;html=1;startArrow=none;startFill=0;endArrow=none;endFill=0;" parent="1" source="gKmMaiQlApSWdwAcJFkc-62" edge="1">
          <mxGeometry relative="1" as="geometry">
            <mxPoint x="1240" y="1000" as="targetPoint" />
          </mxGeometry>
        </mxCell>
        <mxCell id="gKmMaiQlApSWdwAcJFkc-62" value="step: check-in-game" style="rounded=1;whiteSpace=wrap;html=1;" parent="1" vertex="1">
          <mxGeometry x="1180" y="130" width="120" height="40" as="geometry" />
        </mxCell>
        <mxCell id="gKmMaiQlApSWdwAcJFkc-65" value="change party state" style="text;html=1;strokeColor=none;fillColor=none;align=center;verticalAlign=middle;whiteSpace=wrap;rounded=0;" parent="1" vertex="1">
          <mxGeometry x="1051" y="130" width="109" height="20" as="geometry" />
        </mxCell>
        <mxCell id="gKmMaiQlApSWdwAcJFkc-67" value="create new game" style="rounded=0;whiteSpace=wrap;html=1;" parent="1" vertex="1">
          <mxGeometry x="951" y="140" width="100" height="20" as="geometry" />
        </mxCell>
        <mxCell id="gKmMaiQlApSWdwAcJFkc-68" value="if step = check-in-game then navigate to guide" style="shape=process;whiteSpace=wrap;html=1;backgroundOutline=1;" parent="1" vertex="1">
          <mxGeometry x="1391" y="150" width="180" height="60" as="geometry" />
        </mxCell>
        <mxCell id="gKmMaiQlApSWdwAcJFkc-69" value="" style="endArrow=none;html=1;" parent="1" source="gKmMaiQlApSWdwAcJFkc-72" target="gKmMaiQlApSWdwAcJFkc-68" edge="1">
          <mxGeometry width="50" height="50" relative="1" as="geometry">
            <mxPoint x="1480" y="490" as="sourcePoint" />
            <mxPoint x="1480" y="80" as="targetPoint" />
          </mxGeometry>
        </mxCell>
        <mxCell id="gKmMaiQlApSWdwAcJFkc-75" style="edgeStyle=orthogonalEdgeStyle;rounded=0;orthogonalLoop=1;jettySize=auto;html=1;entryX=1;entryY=0.5;entryDx=0;entryDy=0;startArrow=none;startFill=0;endArrow=classic;endFill=1;" parent="1" source="gKmMaiQlApSWdwAcJFkc-70" target="gKmMaiQlApSWdwAcJFkc-72" edge="1">
          <mxGeometry relative="1" as="geometry">
            <Array as="points">
              <mxPoint x="1566" y="240" />
              <mxPoint x="1566" y="285" />
            </Array>
          </mxGeometry>
        </mxCell>
        <mxCell id="gKmMaiQlApSWdwAcJFkc-70" value="check-in guide" style="rounded=0;whiteSpace=wrap;html=1;" parent="1" vertex="1">
          <mxGeometry x="1430" y="230" width="100" height="20" as="geometry" />
        </mxCell>
        <mxCell id="gKmMaiQlApSWdwAcJFkc-72" value="step: check-in-game, done" style="rounded=0;whiteSpace=wrap;html=1;" parent="1" vertex="1">
          <mxGeometry x="1416.5" y="260" width="129" height="50" as="geometry" />
        </mxCell>
        <mxCell id="gKmMaiQlApSWdwAcJFkc-73" value="" style="endArrow=none;html=1;" parent="1" target="gKmMaiQlApSWdwAcJFkc-72" edge="1">
          <mxGeometry width="50" height="50" relative="1" as="geometry">
            <mxPoint x="1481" y="1000" as="sourcePoint" />
            <mxPoint x="1480.9032258064517" y="210" as="targetPoint" />
          </mxGeometry>
        </mxCell>
        <mxCell id="gKmMaiQlApSWdwAcJFkc-77" style="edgeStyle=orthogonalEdgeStyle;rounded=0;orthogonalLoop=1;jettySize=auto;html=1;startArrow=none;startFill=0;endArrow=classic;endFill=1;" parent="1" source="gKmMaiQlApSWdwAcJFkc-76" edge="1">
          <mxGeometry relative="1" as="geometry">
            <mxPoint x="1390" y="290" as="targetPoint" />
          </mxGeometry>
        </mxCell>
        <mxCell id="gKmMaiQlApSWdwAcJFkc-80" style="edgeStyle=orthogonalEdgeStyle;rounded=0;orthogonalLoop=1;jettySize=auto;html=1;startArrow=none;startFill=0;endArrow=classic;endFill=1;" parent="1" source="gKmMaiQlApSWdwAcJFkc-82" target="gKmMaiQlApSWdwAcJFkc-81" edge="1">
          <mxGeometry relative="1" as="geometry">
            <mxPoint x="1110" y="460" as="targetPoint" />
            <Array as="points">
              <mxPoint x="1001" y="390" />
            </Array>
          </mxGeometry>
        </mxCell>
        <mxCell id="gKmMaiQlApSWdwAcJFkc-76" value="if everyones step = check-in-game, done then change party state" style="shape=process;whiteSpace=wrap;html=1;backgroundOutline=1;" parent="1" vertex="1">
          <mxGeometry x="860.5" y="260" width="281" height="60" as="geometry" />
        </mxCell>
        <mxCell id="gKmMaiQlApSWdwAcJFkc-78" value="watch" style="text;html=1;strokeColor=none;fillColor=none;align=center;verticalAlign=middle;whiteSpace=wrap;rounded=0;" parent="1" vertex="1">
          <mxGeometry x="1270" y="270" width="109" height="20" as="geometry" />
        </mxCell>
        <mxCell id="gKmMaiQlApSWdwAcJFkc-81" value="step: play-game" style="rounded=1;whiteSpace=wrap;html=1;" parent="1" vertex="1">
          <mxGeometry x="1180" y="360" width="120" height="60" as="geometry" />
        </mxCell>
        <mxCell id="gKmMaiQlApSWdwAcJFkc-82" value="change party state" style="text;html=1;strokeColor=none;fillColor=none;align=center;verticalAlign=middle;whiteSpace=wrap;rounded=0;" parent="1" vertex="1">
          <mxGeometry x="1051" y="370" width="109" height="20" as="geometry" />
        </mxCell>
        <mxCell id="gKmMaiQlApSWdwAcJFkc-84" value="if step&amp;nbsp;= play-game then navigate to game" style="shape=process;whiteSpace=wrap;html=1;backgroundOutline=1;" parent="1" vertex="1">
          <mxGeometry x="1390" y="390" width="180" height="60" as="geometry" />
        </mxCell>
        <mxCell id="gKmMaiQlApSWdwAcJFkc-85" style="edgeStyle=orthogonalEdgeStyle;rounded=0;orthogonalLoop=1;jettySize=auto;html=1;entryX=1;entryY=0.5;entryDx=0;entryDy=0;startArrow=none;startFill=0;endArrow=classic;endFill=1;" parent="1" source="gKmMaiQlApSWdwAcJFkc-86" target="gKmMaiQlApSWdwAcJFkc-87" edge="1">
          <mxGeometry relative="1" as="geometry">
            <Array as="points">
              <mxPoint x="1566" y="480" />
              <mxPoint x="1566" y="525" />
            </Array>
          </mxGeometry>
        </mxCell>
        <mxCell id="gKmMaiQlApSWdwAcJFkc-86" value="game-over" style="rounded=0;whiteSpace=wrap;html=1;" parent="1" vertex="1">
          <mxGeometry x="1430" y="470" width="100" height="20" as="geometry" />
        </mxCell>
        <mxCell id="gKmMaiQlApSWdwAcJFkc-87" value="step: play-game, done" style="rounded=0;whiteSpace=wrap;html=1;" parent="1" vertex="1">
          <mxGeometry x="1416.5" y="500" width="129" height="50" as="geometry" />
        </mxCell>
        <mxCell id="gKmMaiQlApSWdwAcJFkc-88" style="edgeStyle=orthogonalEdgeStyle;rounded=0;orthogonalLoop=1;jettySize=auto;html=1;startArrow=none;startFill=0;endArrow=classic;endFill=1;" parent="1" source="gKmMaiQlApSWdwAcJFkc-89" edge="1">
          <mxGeometry relative="1" as="geometry">
            <mxPoint x="1390" y="520" as="targetPoint" />
          </mxGeometry>
        </mxCell>
        <mxCell id="gKmMaiQlApSWdwAcJFkc-91" style="edgeStyle=orthogonalEdgeStyle;rounded=0;orthogonalLoop=1;jettySize=auto;html=1;startArrow=none;startFill=0;endArrow=classic;endFill=1;" parent="1" source="gKmMaiQlApSWdwAcJFkc-89" target="gKmMaiQlApSWdwAcJFkc-92" edge="1">
          <mxGeometry relative="1" as="geometry">
            <mxPoint x="1100" y="670" as="targetPoint" />
            <Array as="points">
              <mxPoint x="1001" y="630" />
            </Array>
          </mxGeometry>
        </mxCell>
        <mxCell id="gKmMaiQlApSWdwAcJFkc-89" value="if everyones step = play-game, done then change party step" style="shape=process;whiteSpace=wrap;html=1;backgroundOutline=1;" parent="1" vertex="1">
          <mxGeometry x="860.5" y="490" width="281" height="60" as="geometry" />
        </mxCell>
        <mxCell id="gKmMaiQlApSWdwAcJFkc-90" value="watch" style="text;html=1;strokeColor=none;fillColor=none;align=center;verticalAlign=middle;whiteSpace=wrap;rounded=0;" parent="1" vertex="1">
          <mxGeometry x="1270" y="500" width="109" height="20" as="geometry" />
        </mxCell>
        <mxCell id="gKmMaiQlApSWdwAcJFkc-92" value="step: decline-winner" style="rounded=1;whiteSpace=wrap;html=1;" parent="1" vertex="1">
          <mxGeometry x="1180" y="600" width="120" height="60" as="geometry" />
        </mxCell>
        <mxCell id="gKmMaiQlApSWdwAcJFkc-93" value="change party state" style="text;html=1;strokeColor=none;fillColor=none;align=center;verticalAlign=middle;whiteSpace=wrap;rounded=0;" parent="1" vertex="1">
          <mxGeometry x="1051" y="610" width="109" height="20" as="geometry" />
        </mxCell>
        <mxCell id="gKmMaiQlApSWdwAcJFkc-94" value="if step = decline-winner then show winner-modal" style="shape=process;whiteSpace=wrap;html=1;backgroundOutline=1;" parent="1" vertex="1">
          <mxGeometry x="1381" y="660" width="180" height="60" as="geometry" />
        </mxCell>
      </root>
    </mxGraphModel>
  </diagram>
</mxfile>
